<svg width="512" height="512" viewBox="0 0 512 512" fill="none" xmlns="http://www.w3.org/2000/svg">
  <defs>
    <linearGradient id="bgGradient" x1="0%" y1="0%" x2="100%" y2="100%">
      <stop offset="0%" style="stop-color:#0d9488;stop-opacity:1" />
      <stop offset="100%" style="stop-color:#14b8a6;stop-opacity:1" />
    </linearGradient>
    <linearGradient id="iconGradient" x1="0%" y1="0%" x2="100%" y2="100%">
      <stop offset="0%" style="stop-color:#ffffff;stop-opacity:1" />
      <stop offset="100%" style="stop-color:#f0fdfa;stop-opacity:1" />
    </linearGradient>
  </defs>
  
  <rect width="512" height="512" rx="96" fill="url(#bgGradient)"/>
  
  <g transform="translate(256, 256)">
    <path d="M -80 -120 
             L -80 120 
             L -40 120 
             L -40 20 
             L 0 20 
             L 45 120 
             L 85 120 
             L 35 15 
             C 70 5 80 -15 80 -40 
             C 80 -85 60 -105 20 -105 
             L -80 -105 Z 
             M -40 -65 
             L 20 -65 
             C 30 -65 40 -55 40 -40 
             C 40 -25 30 -15 20 -15 
             L -40 -15 Z" 
          fill="url(#iconGradient)" 
          stroke="none"/>
    
    <circle cx="65" cy="-85" r="18" fill="#fbbf24" opacity="0.9"/>
  </g>
</svg>